# xmcd
#
# Track frame offsets: 
#        150
#        16004
#        40433
#        64062
#        74435
#        89891
#        104711
#        123150
#        134191
#        150625
#        166554
#        183474
#        197321
#        214117
#        228168
#        240534
#        256703
#        276638
#
# Disc length: 3848 seconds
#
# Revision: 3
# Processed by: cddbd v1.5.2PL0 Copyright (c) Steve Scherf et al.
# Submitted via: ExactAudioCopy v1.0b1
#
DISCID=020f0612
DTITLE=Jazzclub Moods - Jazz for Broken Hearts - Jazzclub Moods - Jazz
DTITLE=for Broken Hearts
DYEAR=1900
DGENRE=Jazz
TTITLE0=Billie Holiday - Good Morning Heartache
TTITLE1=Lorez Alexandria - I'm Through with Love
TTITLE2=Mel Tormé - Gloomy Sunday
TTITLE3=Ella Fitzgerald - Reaching For the Moon
TTITLE4=Jimmy Scott - Everybody's Somebody's Fool
TTITLE5=Peggy Lee - A Woman Alone with the Blues
TTITLE6=Chet Baker - Born To Be Blue
TTITLE7=Dinah Washington - Cry Me a River
TTITLE8=Johnny Hartman - It Never Entered My Mind
TTITLE9=Beverly Kenney - A Woman's Intuition
TTITLE10=Frank D'Rone - Everything Happens to Me
TTITLE11=Anita O'Day - When Sunny Gets Blue
TTITLE12=Sarah Vaughan - Trouble Is a Man
TTITLE13=Shirley Horn - Only the Lonely
TTITLE14=Billy Eckstine - What Will I Tell My Heart
TTITLE15=Blossom Dearie - Lonely Town
TTITLE16=Jimmy Rushing - I Left My Baby
TTITLE17=Nina Simone - Nobody Knows You When You're Down and Out
EXTD=
EXTT0=
EXTT1=
EXTT2=
EXTT3=
EXTT4=
EXTT5=
EXTT6=
EXTT7=
EXTT8=
EXTT9=
EXTT10=
EXTT11=
EXTT12=
EXTT13=
EXTT14=
EXTT15=
EXTT16=
EXTT17=
PLAYORDER=
